{"title":"The Nutcracker in 3D (2009) _DvD RiP_In Hindi Audio_[532 MB]_{sh","uid":9345416,"size":566941095,"categoryP":"video","categoryS":"movies","magnet":"?xt=urn:btih:c9957e8587e8ac85cf265d7668198a7c1a299ebe&amp;dn=The+Nutcracker+in+3D+%282009%29+_DvD+RiP_In+Hindi+Audio_%5B532+MB%5D_%7Bsh&amp;tr=udp%3A%2F%2Ftracker.openbittorrent.com%3A80&amp;tr=udp%3A%2F%2Fopen.demonii.com%3A1337&amp;tr=udp%3A%2F%2Ftracker.coppersurfer.tk%3A6969&amp;tr=udp%3A%2F%2Fexodus.desync.com%3A6969","seeders":0,"leechers":0,"uploader":"shilpa143","files":17,"time":1387033019,"description":"[img]http://s28.postimg.org/bcwcsttb1/the_nutcracker_in_3d_stills_09.jpg[/img]\n\n\nImdb Link :- [url]www.imdb.com/title/tt1041804[/url]\n\n\n[img]http://i.cubeupload.com/8K6BPX.png[/img]\n\n[img]http://s28.postimg.org/aoni9vul9/The_Nutcracker_in_3_D_2009_IMDb_2013_12_13_23_29_16.png[/img]\n\n[img]http://i.cubeupload.com/TaXMhY.png[/img]\n\n[b]General\nComplete name                            : The Nutcracker in 3D (2009)\nFormat                                   : MPEG-4\nFormat profile                           : Base Media / Version 2\nCodec ID                                 : mp42\nFile size                                : 532 MiB\nDuration                                 : 1h 38mn\nOverall bit rate mode                    : Variable\nOverall bit rate                         : 754 Kbps\n\n\nVideo\nID                                       : 1\nFormat                                   : AVC\nFormat/Info                              : Advanced Video Codec\nFormat profile                           : &lt;a class=&quot;__cf_email__&quot; href=&quot;/cdn-cgi/l/email-protection&quot; data-cfemail=&quot;6b23020c032b27594559&quot;&gt;[email&amp;#160;protected]&lt;/a&gt;&lt;script data-cfhash='f9e31' type=&quot;text/javascript&quot;&gt;\n/* &lt;![CDATA[ */!function(){try{var t=&quot;currentScript&quot;in document?document.currentScript:function(){for(var t=document.getElementsByTagName(&quot;script&quot;),e=t.length;e--;)if(t[e].getAttribute(&quot;data-cfhash&quot;))return t[e]}();if(t&amp;&amp;t.previousSibling){var e,r,n,i,c=t.previousSibling,a=c.getAttribute(&quot;data-cfemail&quot;);if(a){for(e=&quot;&quot;,r=parseInt(a.substr(0,2),16),n=2;a.length-n;n+=2)i=parseInt(a.substr(n,2),16)^r,e+=String.fromCharCode(i);e=document.createTextNode(e),c.parentNode.replaceChild(e,c)}t.parentNode.removeChild(t);}}catch(u){}}()/* ]]&gt; */&lt;/script&gt;\nFormat settings, CABAC                   : Yes\nFormat settings, ReFrames                : 7 frames\nCodec ID                                 : avc1\nCodec ID/Info                            : Advanced Video Coding\nDuration                                 : 1h 38mn\nBit rate mode                            : Variable\nBit rate                                 : 621 Kbps\nWidth                                    : 696 pixels\nHeight                                   : 288 pixels\nDisplay aspect ratio                     : 2.40:1\nFrame rate mode                          : Variable\nFrame rate                               : 23.976 fps\nColor space                              : YUV\nChroma subsampling                       : 4:2:0\nBit depth                                : 8 bits\nScan type                                : Progressive\nBits/(Pixel*Frame)                       : 0.129\nStream size                              : 438 MiB (82%)\nWriting library                          : x264 core 130 r2273 b3065e6\n\n\nAudio\nID                                       : 2\nFormat                                   : AAC\nFormat/Info                              : Advanced Audio Codec\nFormat profile                           : LC\nCodec ID                                 : 40\nDuration                                 : 1h 38mn\nBit rate mode                            : Variable\nBit rate                                 : 128 Kbps\nMaximum bit rate                         : 167 Kbps\nChannel count                            : 2 channels\nChannel positions                        : Front: L R\nSampling rate                            : 48.0 KHz\nCompression mode                         : Lossy\nDelay relative to video                  : 140ms\nStream size                              : 90.3 MiB (17%)\nEncoded date                             : UTC 2013-12-02 02:57:03\nTagged date                              : UTC 2013-12-02 08:45:51\n\nText\nID                                       : 3\nFormat                                   : Timed Text\nMuxing mode                              : sbtl\nCodec ID                                 : tx3g\nDuration                                 : 1h 30mn\nBit rate mode                            : Variable\nBit rate                                 : 1 bps\n\n[/b]\n\n\n[img]http://i.cubeupload.com/eh1EHE.png[/img]\n\n\n[img]http://s28.postimg.org/s4hobktjx/The_Nutcracker_in_3_D_2009.jpg[/img]\n\n\n\n\n\n[img]http://s22.postimg.org/bhay4358x/thanks.jpg[/img]\n\n\n\n\n\n[url=http://extratorrent.cc/user/review_add/?user=shilpa143][img]http://s28.postimg.org/4l3jk2ql9/Review.png[/img][/url]","torrent":{"xt":"urn:btih:c9957e8587e8ac85cf265d7668198a7c1a299ebe","amp;dn":"The+Nutcracker+in+3D+%282009%29+_DvD+RiP_In+Hindi+Audio_%5B532+MB%5D_%7Bsh","amp;tr":["udp%3A%2F%2Ftracker.openbittorrent.com%3A80","udp%3A%2F%2Fopen.demonii.com%3A1337","udp%3A%2F%2Ftracker.coppersurfer.tk%3A6969","udp%3A%2F%2Fexodus.desync.com%3A6969"],"infoHash":"c9957e8587e8ac85cf265d7668198a7c1a299ebe","infoHashBuffer":{"type":"Buffer","data":[201,149,126,133,135,232,172,133,207,38,93,118,104,25,138,124,26,41,158,190]},"announce":[],"urlList":[]}}